<svg width="21" height="25" viewBox="0 0 21 25" fill="none" xmlns="http://www.w3.org/2000/svg">
<path d="M17.6283 13.0144C17.6094 9.95631 20.1636 8.48319 20.2771 8.4086C18.8203 6.32013 16.5688 6.04042 15.7741 6.02177C13.8821 5.8353 12.0469 7.1406 11.082 7.1406C10.1171 7.1406 8.62238 6.04042 7.01418 6.07771C4.9519 6.11501 3.04098 7.28978 1.98145 9.09855C-0.194347 12.8093 1.43277 18.2729 3.51398 21.2751C4.55458 22.7482 5.78438 24.3892 7.37366 24.3332C8.94402 24.2773 9.51162 23.3449 11.4036 23.3449C13.2956 23.3449 13.8254 24.3332 15.4525 24.2959C17.1364 24.2773 18.177 22.8228 19.1987 21.3311C20.4095 19.6528 20.8825 17.9932 20.9015 17.9C20.8636 17.9 17.6472 16.6693 17.6094 13.0144H17.6283Z" fill="white"/>
<path d="M14.5632 4.04523C15.3957 3.01964 15.9822 1.60245 15.8119 0.166626C14.601 0.222567 13.0685 0.987099 12.1982 2.01269C11.4225 2.90775 10.7224 4.36223 10.9116 5.74212C12.2739 5.83535 13.6739 5.07082 14.5632 4.04523Z" fill="white"/>
</svg>
