<svg width="78" height="17" viewBox="0 0 78 17" fill="none" xmlns="http://www.w3.org/2000/svg">
<path d="M11.6863 13.2259H9.51046L8.3185 9.51516H4.1561L3.0209 13.2259H0.901855L5.02642 0.620483H7.5617L11.7052 13.2259H11.6863ZM7.95902 7.96745L6.88058 4.68556C6.76706 4.34991 6.55894 3.54808 6.2373 2.31737H6.19946C6.06702 2.85814 5.87782 3.64132 5.59402 4.68556L4.5345 7.96745H7.97794H7.95902Z" fill="white"/>
<path d="M22.2628 8.58277C22.2628 10.1305 21.8465 11.3425 20.9951 12.2563C20.2383 13.0581 19.2923 13.4497 18.176 13.4497C16.9652 13.4497 16.0948 13.0208 15.5651 12.163H15.5272V16.9553H13.4839V7.14694C13.4839 6.17729 13.465 5.17034 13.4082 4.1634H15.2056L15.3191 5.59923H15.357C16.0381 4.5177 17.0787 3.97693 18.4598 3.97693C19.5572 3.97693 20.4464 4.40581 21.1843 5.24493C21.9033 6.1027 22.2817 7.20288 22.2817 8.60141L22.2628 8.58277ZM20.1816 8.65736C20.1816 7.78094 19.9734 7.03506 19.5761 6.47564C19.141 5.87893 18.5355 5.58058 17.7976 5.58058C17.2868 5.58058 16.8327 5.7484 16.4165 6.08405C16.0002 6.4197 15.7354 6.84859 15.6029 7.38935C15.5462 7.63176 15.5083 7.83688 15.5083 8.00471V9.51512C15.5083 10.1678 15.7164 10.7272 16.1327 11.1934C16.5489 11.6409 17.0787 11.8833 17.7409 11.8833C18.5166 11.8833 19.122 11.585 19.5383 11.0069C19.9734 10.4288 20.1816 9.64565 20.1816 8.69465V8.65736Z" fill="white"/>
<path d="M32.8765 8.58277C32.8765 10.1305 32.4603 11.3425 31.6089 12.2563C30.8521 13.0581 29.9061 13.4497 28.7898 13.4497C27.5789 13.4497 26.7086 13.0208 26.1789 12.163H26.141V16.9553H24.0977V7.14694C24.0977 6.17729 24.0787 5.17034 24.022 4.1634H25.8194L25.9329 5.59923H25.9707C26.6519 4.5177 27.6925 3.97693 29.0736 3.97693C30.1521 3.97693 31.0602 4.40581 31.7981 5.24493C32.5171 6.1027 32.8955 7.20288 32.8955 8.60141L32.8765 8.58277ZM30.7953 8.65736C30.7953 7.78094 30.5872 7.03506 30.1899 6.47564C29.7547 5.87893 29.1493 5.58058 28.4114 5.58058C27.9006 5.58058 27.4465 5.7484 27.0303 6.08405C26.614 6.4197 26.3491 6.84859 26.2167 7.38935C26.1599 7.63176 26.1221 7.83688 26.1221 8.00471V9.51512C26.1221 10.1678 26.3302 10.7272 26.7465 11.1934C27.1627 11.6409 27.6925 11.8833 28.3547 11.8833C29.1304 11.8833 29.7358 11.585 30.1521 11.0069C30.5872 10.4288 30.7953 9.64565 30.7953 8.69465V8.65736Z" fill="white"/>
<path d="M44.7205 9.70158C44.7205 10.7645 44.3421 11.6409 43.5853 12.3122C42.7528 13.0394 41.5987 13.4124 40.104 13.4124C38.7228 13.4124 37.6254 13.1513 36.793 12.6292L37.266 10.9509C38.1741 11.4917 39.158 11.7528 40.2364 11.7528C41.0121 11.7528 41.5987 11.5849 42.0338 11.2306C42.469 10.895 42.6771 10.4288 42.6771 9.85076C42.6771 9.34728 42.5068 8.89975 42.1473 8.5641C41.7878 8.20981 41.2013 7.89281 40.3878 7.59445C38.1552 6.77398 37.0389 5.56192 37.0389 3.97691C37.0389 2.93267 37.4362 2.09355 38.212 1.42226C38.9877 0.769608 40.0283 0.43396 41.3338 0.43396C42.5068 0.43396 43.4717 0.639078 44.2285 1.03067L43.7177 2.67161C42.9987 2.28002 42.1852 2.09355 41.277 2.09355C40.558 2.09355 39.9904 2.26138 39.5931 2.61567C39.2526 2.93267 39.0823 3.30562 39.0823 3.75315C39.0823 4.25662 39.2715 4.66686 39.6688 4.98386C40.0094 5.28221 40.6337 5.59921 41.523 5.95351C42.6203 6.38239 43.4339 6.90451 43.9447 7.48257C44.4556 8.06063 44.7205 8.80652 44.7205 9.66428V9.70158Z" fill="white"/>
<path d="M51.4939 5.65515H49.2424V10.0745C49.2424 11.1933 49.6397 11.7528 50.4344 11.7528C50.7938 11.7528 51.0966 11.7155 51.3425 11.6595L51.3993 13.1886C51.002 13.3378 50.4722 13.4123 49.81 13.4123C48.9964 13.4123 48.3721 13.1699 47.918 12.6851C47.4639 12.2003 47.2369 11.3798 47.2369 10.2423V5.65515H45.8936V4.14473H47.2369V2.48514L49.2424 1.88843V4.14473H51.4939V5.65515Z" fill="white"/>
<path d="M61.6917 8.62006C61.6917 10.0186 61.2944 11.1561 60.4808 12.0511C59.6294 12.9835 58.5132 13.431 57.0941 13.431C55.6751 13.431 54.6535 12.9835 53.8588 12.1071C53.0642 11.2307 52.6479 10.1118 52.6479 8.76924C52.6479 7.42665 53.0642 6.21458 53.8967 5.31952C54.7292 4.42446 55.8454 3.97693 57.2455 3.97693C58.6456 3.97693 59.6862 4.42446 60.4998 5.30087C61.2755 6.15864 61.6728 7.27747 61.6728 8.62006H61.6917ZM59.5727 8.69465C59.5727 7.85553 59.3835 7.14694 59.024 6.53158C58.5888 5.80435 57.9834 5.45005 57.1887 5.45005C56.3941 5.45005 55.7319 5.80435 55.3157 6.53158C54.9562 7.12829 54.767 7.85553 54.767 8.73194C54.767 9.60836 54.9562 10.2797 55.3157 10.895C55.7508 11.6222 56.3752 11.9765 57.1698 11.9765C57.9645 11.9765 58.5699 11.6036 59.0051 10.8764C59.3835 10.261 59.5727 9.53377 59.5727 8.69465Z" fill="white"/>
<path d="M68.3518 5.9162C68.1437 5.8789 67.9356 5.86026 67.7085 5.86026C66.9896 5.86026 66.4409 6.12132 66.0436 6.66208C65.703 7.12826 65.5327 7.74362 65.5327 8.45221V13.2259H63.4894V6.99773C63.4894 5.95349 63.4894 5.00249 63.4326 4.14472H65.2111L65.2868 5.8789H65.3435C65.5517 5.2822 65.8922 4.79737 66.3652 4.44308C66.8193 4.12608 67.3112 3.95825 67.841 3.95825C68.0302 3.95825 68.2005 3.95825 68.3518 3.99555V5.9162Z" fill="white"/>
<path d="M77.5091 8.26571C77.5091 8.62 77.4902 8.937 77.4335 9.17942H71.2845C71.3034 10.0745 71.6061 10.7644 72.1737 11.2306C72.6845 11.6595 73.3657 11.8646 74.1792 11.8646C75.0874 11.8646 75.9199 11.7154 76.6577 11.4357L76.9794 12.8343C76.1091 13.2072 75.0685 13.3937 73.8954 13.3937C72.4575 13.3937 71.3412 12.9834 70.5276 12.1443C69.7141 11.3238 69.2979 10.205 69.2979 8.80647C69.2979 7.40794 69.6762 6.28911 70.433 5.39405C71.2277 4.4244 72.3061 3.93958 73.6495 3.93958C74.9928 3.93958 75.9766 4.4244 76.6577 5.39405C77.2064 6.15858 77.4713 7.12823 77.4713 8.24706L77.5091 8.26571ZM75.5604 7.74359C75.5604 7.14688 75.4469 6.62476 75.1631 6.19588C74.8036 5.63646 74.2549 5.35676 73.5359 5.35676C72.8737 5.35676 72.3251 5.63646 71.9088 6.17723C71.5683 6.60611 71.3601 7.12823 71.3034 7.74359H75.5793H75.5604Z" fill="white"/>
</svg>
