<svg width="25" height="25" viewBox="0 0 25 25" fill="none" xmlns="http://www.w3.org/2000/svg">
<g clip-path="url(#clip0_39_1521)">
<circle cx="12.501" cy="12.5" r="12" stroke="#333333"/>
<rect x="7.14453" y="5.35645" width="10.119" height="10.119" fill="#202020"/>
<path d="M7.14453 16.0713H17.2636L14.2874 19.6427H10.1207L7.14453 16.0713Z" fill="#202020"/>
<path d="M10.9159 20.3871L13.4934 20.3871L12.2047 22.6192L10.9159 20.3871Z" fill="#202020"/>
<path d="M10.1759 12.7617V7.46886H11.2545L12.7902 10.2903L13.3259 11.4331H13.3616C13.333 11.157 13.3021 10.8546 13.2687 10.526C13.2354 10.1974 13.2187 9.88315 13.2187 9.58315V7.46886H14.2187V12.7617H13.1402L11.6187 9.93315L11.083 8.79743H11.0473C11.0711 9.08315 11.0997 9.38553 11.133 9.70458C11.1664 10.0236 11.183 10.3355 11.183 10.6403V12.7617H10.1759Z" fill="white"/>
</g>
<defs>
<clipPath id="clip0_39_1521">
<rect width="25" height="25" fill="white"/>
</clipPath>
</defs>
</svg>
