<svg width="1350" height="170" viewBox="0 0 1350 170" fill="none" xmlns="http://www.w3.org/2000/svg">
<g clip-path="url(#clip0_255_605)">
<path d="M160.519 168.784C144.124 168.784 130.05 165.304 118.295 158.344C106.54 151.229 97.4922 141.408 91.1509 128.88C84.8096 116.197 81.6389 101.581 81.6389 85.032C81.6389 68.4827 84.8096 53.8667 91.1509 41.184C97.4922 28.5013 106.54 18.6027 118.295 11.488C130.05 4.37333 144.124 0.815997 160.519 0.815997C180.007 0.815997 195.938 5.68799 208.311 15.432C220.839 25.0213 228.65 38.5547 231.743 56.032H199.031C197.02 47.216 192.69 40.3333 186.039 35.384C179.543 30.28 170.882 27.728 160.055 27.728C145.052 27.728 133.298 32.832 124.791 43.04C116.284 53.248 112.031 67.2453 112.031 85.032C112.031 102.819 116.284 116.816 124.791 127.024C133.298 137.077 145.052 142.104 160.055 142.104C170.882 142.104 179.543 139.784 186.039 135.144C192.69 130.349 197.02 123.776 199.031 115.424H231.743C228.65 132.128 220.839 145.197 208.311 154.632C195.938 164.067 180.007 168.784 160.519 168.784ZM352.686 168.784C336.446 168.784 322.216 165.227 309.998 158.112C297.934 150.997 288.422 141.176 281.462 128.648C274.656 115.965 271.254 101.349 271.254 84.8C271.254 68.2507 274.656 53.712 281.462 41.184C288.422 28.5013 297.934 18.6027 309.998 11.488C322.216 4.37333 336.446 0.815997 352.686 0.815997C368.771 0.815997 382.923 4.37333 395.142 11.488C407.36 18.6027 416.872 28.5013 423.678 41.184C430.483 53.712 433.886 68.2507 433.886 84.8C433.886 101.349 430.483 115.965 423.678 128.648C416.872 141.176 407.36 150.997 395.142 158.112C382.923 165.227 368.771 168.784 352.686 168.784ZM352.686 142.104C368.152 142.104 380.448 137 389.574 126.792C398.854 116.584 403.494 102.587 403.494 84.8C403.494 67.0133 398.854 53.016 389.574 42.808C380.448 32.6 368.152 27.496 352.686 27.496C337.219 27.496 324.846 32.6 315.566 42.808C306.286 53.016 301.646 67.0133 301.646 84.8C301.646 102.587 306.286 116.584 315.566 126.792C324.846 137 337.219 142.104 352.686 142.104ZM478.665 166V3.59999H508.361L584.689 117.976V3.59999H614.385V166H584.689L508.361 51.856V166H478.665ZM702.244 166V27.496H654.916V3.59999H779.5V27.496H731.94V166H702.244ZM820.059 166V3.59999H926.083V27.496H849.755V72.04H919.123V95.24H849.755V142.104H926.083V166H820.059ZM972.744 166V3.59999H1002.44L1078.77 117.976V3.59999H1108.46V166H1078.77L1002.44 51.856V166H972.744ZM1196.32 166V27.496H1148.99V3.59999H1273.58V27.496H1226.02V166H1196.32Z" fill="white"/>
</g>
<defs>
<clipPath id="clip0_255_605">
<rect width="1350" height="170" fill="white"/>
</clipPath>
</defs>
</svg>
