<svg width="26" height="32" viewBox="0 0 26 32" fill="none" xmlns="http://www.w3.org/2000/svg">
<g clip-path="url(#clip0_315_570)">
<path d="M25.8749 19.9941V17.2376C25.8749 14.9039 23.9692 13.0103 21.6166 13.0103H16.3097C14.5395 13.0103 13.1055 14.5528 13.1055 16.455C13.1055 18.3573 14.5395 19.8998 16.3097 19.8998C16.3115 19.8998 16.3132 19.8998 16.3132 19.8998V19.9015L18.1872 19.8998C18.4142 19.8998 18.5972 20.0814 18.5972 20.3068V21.8597C18.5972 22.4344 17.874 25.2084 13.4891 25.2084C9.10415 25.2084 7.90058 21.3811 7.90058 20.043C7.90058 18.705 7.90058 15.2602 7.90058 12.102C7.90058 8.94547 10.4538 6.69731 13.8762 6.69731C16.227 6.69731 17.2845 7.05541 18.1907 7.61614C18.518 7.81877 19.5896 8.44413 20.4518 8.44413C22.3803 8.44413 23.9446 6.89121 23.9446 4.97669C23.9446 4.0404 23.5698 3.19319 22.9627 2.56957C22.968 2.55909 22.7885 2.3879 22.6917 2.31628C22.4964 2.15383 22.2835 2.01408 22.0565 1.89705C19.3397 0.26901 15.6305 0 12.9612 0C2.07104 0 0 7.50958 0 10.6661C0 13.8226 0 20.7103 0 21.5243C0 22.3383 0.144287 32 13.6351 32C27.1277 32 25.8749 19.9941 25.8749 19.9941Z" fill="#EE3541"/>
</g>
<defs>
<clipPath id="clip0_315_570">
<rect width="25.9048" height="32" fill="white"/>
</clipPath>
</defs>
</svg>
