<svg width="102" height="20" viewBox="0 0 102 20" fill="none" xmlns="http://www.w3.org/2000/svg">
<g clip-path="url(#clip0_221_572)">
<path d="M27.3307 19.9914H24.7778V9.04945C24.7778 8.35367 25.3488 7.79062 26.0543 7.79062C26.7598 7.79062 27.3307 8.35367 27.3307 9.04945V19.9914Z" fill="white"/>
<path d="M101.998 19.9914H99.4448V9.04945C99.4448 8.35367 100.016 7.79062 100.721 7.79062C101.427 7.79062 101.998 8.35367 101.998 9.04945V19.9914Z" fill="white"/>
<path d="M53.1631 10.6765V19.9914H55.716V10.6765C55.716 10.4731 55.8831 10.3083 56.0893 10.3083C56.2956 10.3083 56.4627 10.4731 56.4627 10.6765V19.9914H59.0156V10.6765C59.0156 9.08157 57.7044 7.78848 56.0872 7.78848C54.4721 7.79062 53.1631 9.08157 53.1631 10.6765Z" fill="white"/>
<path d="M52.0713 10.3083V7.79062H50.7906H48.47H46.5944H45.3179C44.6124 7.79062 44.0415 8.35367 44.0415 9.04945V10.3083V17.4738V18.7326C44.0415 19.4284 44.6124 19.9914 45.3179 19.9914H46.5944H48.47H50.7906H52.0713V17.4738H50.7906V10.3083H52.0713ZM48.47 17.4738H47.085C46.8136 17.4738 46.5922 17.2554 46.5922 16.9878V10.7943C46.5922 10.5266 46.8136 10.3083 47.085 10.3083H48.47V17.4738Z" fill="white"/>
<path d="M16.2809 7.79062C15.5624 7.79062 14.9828 8.37508 15.0045 9.08799C15.0262 9.77735 15.634 10.3083 16.3352 10.3083H20.8049C21.0763 10.3083 21.2955 10.5245 21.2955 10.7921V19.9914H23.8484V9.04945C23.8484 8.35367 23.2775 7.79062 22.572 7.79062H16.2809Z" fill="white"/>
<path d="M41.4125 7.79062C40.707 7.79062 40.1361 8.35367 40.1361 9.04945V12.6311H38.1845V12.3849C38.1845 9.85228 36.1027 7.79918 33.5346 7.79918C30.9666 7.79918 28.8848 9.85228 28.8848 12.3849V15.4164C28.8848 17.949 30.9666 20.0021 33.5346 20.0021C36.1027 20.0021 38.1845 17.949 38.1845 15.4164V15.1509H40.1361V19.9914H42.689V15.1488V12.6311V9.04945C42.689 8.35367 42.118 7.79062 41.4125 7.79062ZM35.8053 15.3928C35.8053 16.6367 34.7829 17.6429 33.5238 17.6429C32.2647 17.6429 31.2423 16.6346 31.2423 15.3928V12.4063C31.2423 11.1625 32.2647 10.1563 33.5238 10.1563C34.7829 10.1563 35.8053 11.1646 35.8053 12.4063V15.3928Z" fill="white"/>
<path d="M72.5184 7.77136C71.8194 7.79277 71.281 8.39222 71.281 9.08372V10.9912H69.438V10.1263V9.0302C69.438 8.33441 68.8671 7.77136 68.1615 7.77136H61.6252C61.0261 7.77136 60.542 8.24878 60.542 8.83966V9.05803C60.542 9.64891 61.0261 10.1263 61.6252 10.1263H66.3923C66.6637 10.1263 66.8851 10.3447 66.8851 10.6123V10.9955H61.6252C61.0261 10.9955 60.542 11.4729 60.542 12.0638C60.542 12.6547 61.0261 13.1321 61.6252 13.1321H66.8851V14.2389H69.438V13.1321H71.281V14.2389H73.8339V9.0302C73.8339 8.32157 73.2412 7.74996 72.5184 7.77136Z" fill="white"/>
<path d="M60.7588 15.9174V18.7412C60.7588 19.437 61.3297 20 62.0352 20H73.8336V15.9174C73.8336 15.2216 73.2627 14.6585 72.5572 14.6585H62.0374C61.3297 14.6585 60.7588 15.2216 60.7588 15.9174ZM71.2807 17.8634H63.8044C63.5331 17.8634 63.3117 17.6451 63.3117 17.3774V17.2811C63.3117 17.0135 63.5331 16.7951 63.8044 16.7951H70.7879C71.0593 16.7951 71.2807 17.0135 71.2807 17.2811V17.8634Z" fill="white"/>
<path d="M92.6461 16.9878V9.10084C92.6461 8.41148 92.1078 7.80989 91.4088 7.78849C90.6859 7.76708 90.0933 8.33869 90.0933 9.04732V18.7326C90.0933 19.4284 90.6642 19.9914 91.3697 19.9914H91.6866H92.6461H98.5117V17.4738H93.1367C92.8654 17.4738 92.6461 17.2554 92.6461 16.9878Z" fill="white"/>
<path d="M87.2493 7.79062C86.5438 7.79062 85.9728 8.35367 85.9728 9.04945V12.6311H83.3223V10.3083H83.7933C84.4989 10.3083 85.0698 9.74523 85.0698 9.04945C85.0698 8.35367 84.4989 7.79062 83.7933 7.79062H82.5799H81.7311H78.4531H77.6044H76.3453C75.6398 7.79062 75.0688 8.35367 75.0688 9.04945C75.0688 9.74523 75.6398 10.3083 76.3453 10.3083H76.8619V17.4738H76.3453C75.6398 17.4738 75.0688 18.0368 75.0688 18.7326C75.0688 19.4284 75.6398 19.9914 76.3453 19.9914H76.8619H79.1956H80.9887H83.3223H85.0698V17.4738H83.3223V15.1488H85.9728V19.9893H88.5257V9.04945C88.5257 8.35367 87.9526 7.79062 87.2493 7.79062ZM80.9865 17.4738H79.1934V10.3083H80.9865V17.4738Z" fill="white"/>
<path d="M12.5473 7.79062C11.8418 7.79062 11.2709 8.35367 11.2709 9.04945V10.5909H8.9329C8.22738 8.94455 6.57539 7.79062 4.64988 7.79062C2.08181 7.79062 0 9.84157 0 12.3742V15.4057C0 17.9383 2.08181 19.9914 4.64988 19.9914C6.57539 19.9914 8.22738 18.8375 8.9329 17.1912H11.2709V19.9914H13.8237V9.04945C13.8237 8.35367 13.2528 7.79062 12.5473 7.79062ZM6.91838 15.3843C6.91838 16.6281 5.89593 17.6343 4.63686 17.6343C3.37779 17.6343 2.35533 16.626 2.35533 15.3843V12.3978C2.35533 11.1539 3.37779 10.1477 4.63686 10.1477C5.89593 10.1477 6.91838 11.1561 6.91838 12.3978V15.3843ZM9.29759 14.6735V13.1085H11.2709V14.6735H9.29759Z" fill="white"/>
<path d="M60.542 6.2963L73.3194 2.57333C73.6863 2.46628 74.0705 2.43845 74.4482 2.48983L102 6.2963V3.72083L74.433 0.023552C74.0662 -0.025688 73.6906 2.44248e-06 73.3346 0.102764L60.542 3.72297V6.2963Z" fill="white"/>
</g>
<defs>
<clipPath id="clip0_221_572">
<rect width="102" height="20" fill="white"/>
</clipPath>
</defs>
</svg>
