<svg width="80" height="17" viewBox="0 0 80 17" fill="none" xmlns="http://www.w3.org/2000/svg">
<path d="M25.5762 4.71676C23.3643 4.71676 21.5427 6.5052 21.5427 8.96185C21.5427 11.4185 23.3457 13.2069 25.5762 13.2069C27.8067 13.2069 29.6097 11.3988 29.6097 8.96185C29.6097 6.52486 27.8067 4.71676 25.5762 4.71676ZM25.5762 11.5364C24.368 11.5364 23.3085 10.4751 23.3085 8.96185C23.3085 7.44856 24.368 6.38728 25.5762 6.38728C26.7844 6.38728 27.8439 7.4289 27.8439 8.96185C27.8439 10.4948 26.803 11.5364 25.5762 11.5364ZM16.7844 4.71676C14.5539 4.71676 12.7509 6.5052 12.7509 8.96185C12.7509 11.4185 14.5539 13.2069 16.7844 13.2069C19.0149 13.2069 20.8178 11.3988 20.8178 8.96185C20.8178 6.52486 19.0149 4.71676 16.7844 4.71676ZM16.7844 11.5364C15.5762 11.5364 14.5167 10.4751 14.5167 8.96185C14.5167 7.44856 15.5762 6.38728 16.7844 6.38728C17.9926 6.38728 19.052 7.4289 19.052 8.96185C19.052 10.4948 18.0112 11.5364 16.7844 11.5364ZM6.3197 6.01387V7.82196H10.3903C10.2602 8.84393 9.94424 9.5711 9.46097 10.0821C8.86617 10.711 7.9368 11.3988 6.3197 11.3988C3.81041 11.3988 1.84015 9.25665 1.84015 6.60347C1.84015 3.95029 3.81041 1.80809 6.3197 1.80809C7.67658 1.80809 8.66171 2.37803 9.38662 3.08555L10.5948 1.80809C9.57249 0.786127 8.21561 0 6.3197 0C2.88104 0 0 2.96763 0 6.58382C0 10.2 2.88104 13.1676 6.3197 13.1676C8.17844 13.1676 9.57249 12.5191 10.6691 11.3202C11.803 10.1214 12.1375 8.45087 12.1375 7.11445C12.1375 6.70173 12.1004 6.30867 12.0446 5.99422H6.3197V6.01387ZM49.0892 7.40925C48.7546 6.4659 47.7323 4.71676 45.6506 4.71676C43.5688 4.71676 41.8587 6.44624 41.8587 8.96185C41.8587 11.3399 43.5688 13.2069 45.8364 13.2069C47.6766 13.2069 48.7361 12.0081 49.1822 11.3202L47.8067 10.3572C47.3606 11.0647 46.7286 11.5364 45.8364 11.5364C44.9442 11.5364 44.2937 11.104 43.8848 10.259L49.2565 7.92023L49.0706 7.4289L49.0892 7.40925ZM43.6059 8.82428C43.5502 7.19306 44.8141 6.34798 45.7063 6.34798C46.4126 6.34798 47.0074 6.72139 47.1933 7.25202L43.6059 8.82428ZM39.2379 12.9318H41.0037V0.471676H39.2379V12.9514V12.9318ZM36.3383 5.64046H36.2825C35.8922 5.14913 35.1301 4.69711 34.1636 4.69711C32.1561 4.69711 30.316 6.56416 30.316 8.96185C30.316 11.3595 32.1561 13.1873 34.1636 13.1873C35.1301 13.1873 35.8736 12.7353 36.2825 12.2243H36.3383V12.8335C36.3383 14.4647 35.5204 15.3295 34.2007 15.3295C33.1227 15.3295 32.4535 14.504 32.1747 13.8162L30.632 14.4844C31.0781 15.6046 32.2491 17 34.1822 17C36.2454 17 37.9926 15.7225 37.9926 12.578V4.9526H36.3197V5.64046H36.3383ZM34.3123 11.5168C33.1041 11.5168 32.0818 10.4358 32.0818 8.96185C32.0818 7.48786 33.1041 6.36763 34.3123 6.36763C35.5204 6.36763 36.4498 7.46821 36.4498 8.96185C36.4498 10.4555 35.5019 11.5168 34.3123 11.5168ZM57.3234 0.452023H53.1041V12.9318H54.8699V8.19538H57.3234C59.2751 8.19538 61.1896 6.70173 61.1896 4.3237C61.1896 1.94566 59.2751 0.452023 57.3234 0.452023ZM57.3606 6.4659H54.8513V2.1815H57.3606C58.6803 2.1815 59.4238 3.34104 59.4238 4.3237C59.4238 5.30636 58.6803 6.4659 57.3606 6.4659ZM68.2528 4.67746C66.9703 4.67746 65.6506 5.26705 65.1115 6.58382L66.6729 7.27168C67.0074 6.58381 67.6208 6.34798 68.29 6.34798C69.2007 6.34798 70.1301 6.91792 70.1487 7.95954V8.09711C69.8327 7.90058 69.145 7.62543 68.3085 7.62543C66.6171 7.62543 64.9071 8.60809 64.9071 10.4358C64.9071 12.1064 66.2825 13.1873 67.8439 13.1873C69.0335 13.1873 69.684 12.6173 70.0929 11.9688H70.1487V12.9318H71.8401V8.15607C71.8401 5.93526 70.2788 4.69711 68.2528 4.69711V4.67746ZM68.0483 11.5168C67.4721 11.5168 66.6729 11.222 66.6729 10.4555C66.6729 9.49249 67.6766 9.11908 68.5316 9.11908C69.3123 9.11908 69.6654 9.29596 70.1487 9.53179C70.0186 10.6913 69.0706 11.4971 68.0483 11.4971V11.5168ZM78.0297 4.9526L76.0037 10.3572H75.948L73.8476 4.9526H71.9517L75.0929 12.5191L73.3085 16.7249H75.1487L80 4.9526H78.0483H78.0297ZM62.1561 12.9318H63.9219V0.471676H62.1561V12.9514V12.9318Z" fill="white"/>
</svg>
