<svg width="25" height="25" viewBox="0 0 25 25" fill="none" xmlns="http://www.w3.org/2000/svg">
<g clip-path="url(#clip0_39_1518)">
<circle cx="12.5005" cy="12.5" r="12" stroke="#333333"/>
<path d="M12.4679 9.12525C10.6194 9.12525 9.1284 10.6163 9.1284 12.4647C9.1284 14.3132 10.6194 15.8042 12.4679 15.8042C14.3164 15.8042 15.8074 14.3132 15.8074 12.4647C15.8074 10.6163 14.3164 9.12525 12.4679 9.12525ZM12.4679 14.6359C11.2734 14.6359 10.2968 13.6622 10.2968 12.4647C10.2968 11.2673 11.2704 10.2936 12.4679 10.2936C13.6653 10.2936 14.639 11.2673 14.639 12.4647C14.639 13.6622 13.6624 14.6359 12.4679 14.6359ZM16.7229 8.98865C16.7229 9.42171 16.3741 9.76757 15.944 9.76757C15.5109 9.76757 15.1651 9.4188 15.1651 8.98865C15.1651 8.55849 15.5138 8.20972 15.944 8.20972C16.3741 8.20972 16.7229 8.55849 16.7229 8.98865ZM18.9347 9.7792C18.8853 8.73579 18.647 7.81154 17.8826 7.05005C17.1211 6.28857 16.1969 6.05024 15.1534 5.99792C14.0781 5.93689 10.8548 5.93689 9.77944 5.99792C8.73894 6.04733 7.81469 6.28566 7.0503 7.04715C6.28591 7.80863 6.05048 8.73288 5.99817 9.77629C5.93713 10.8517 5.93713 14.0749 5.99817 15.1503C6.04758 16.1937 6.28591 17.1179 7.0503 17.8794C7.81469 18.6409 8.73603 18.8792 9.77944 18.9316C10.8548 18.9926 14.0781 18.9926 15.1534 18.9316C16.1969 18.8822 17.1211 18.6438 17.8826 17.8794C18.6441 17.1179 18.8824 16.1937 18.9347 15.1503C18.9958 14.0749 18.9958 10.8546 18.9347 9.7792ZM17.5454 16.3041C17.3187 16.8738 16.8799 17.3127 16.3073 17.5423C15.4499 17.8823 13.4154 17.8039 12.4679 17.8039C11.5204 17.8039 9.48299 17.8794 8.62849 17.5423C8.05883 17.3156 7.61996 16.8767 7.39035 16.3041C7.0503 15.4467 7.12877 13.4122 7.12877 12.4647C7.12877 11.5172 7.05321 9.47984 7.39035 8.62534C7.61705 8.05568 8.05593 7.61681 8.62849 7.3872C9.48589 7.04715 11.5204 7.12562 12.4679 7.12562C13.4154 7.12562 15.4528 7.05005 16.3073 7.3872C16.877 7.6139 17.3158 8.05277 17.5454 8.62534C17.8855 9.48274 17.807 11.5172 17.807 12.4647C17.807 13.4122 17.8855 15.4497 17.5454 16.3041Z" fill="#202020"/>
</g>
<defs>
<clipPath id="clip0_39_1518">
<rect width="25" height="25" fill="white"/>
</clipPath>
</defs>
</svg>
