<svg width="140" height="28" viewBox="0 0 140 28" fill="none" xmlns="http://www.w3.org/2000/svg">
<g clip-path="url(#clip0_57_716)">
<path d="M37.5125 27.4391H34.0085V12.4207C34.0085 11.4657 34.7922 10.6929 35.7605 10.6929C36.7289 10.6929 37.5125 11.4657 37.5125 12.4207V27.4391Z" fill="#F7323F"/>
<path d="M139.997 27.4391H136.493V12.4207C136.493 11.4657 137.277 10.6929 138.245 10.6929C139.213 10.6929 139.997 11.4657 139.997 12.4207V27.4391Z" fill="#F7323F"/>
<path d="M72.9692 14.6539V27.4391H76.4732V14.6539C76.4732 14.3748 76.7026 14.1485 76.9857 14.1485C77.2687 14.1485 77.4982 14.3748 77.4982 14.6539V27.4391H81.0021V14.6539C81.0021 12.4648 79.2025 10.6899 76.9827 10.6899C74.7659 10.6929 72.9692 12.4648 72.9692 14.6539Z" fill="#F7323F"/>
<path d="M71.4703 14.1485V10.6929H69.7124H66.5272H63.9529H62.2009C61.2326 10.6929 60.449 11.4657 60.449 12.4207V14.1485V23.9835V25.7113C60.449 26.6663 61.2326 27.4391 62.2009 27.4391H63.9529H66.5272H69.7124H71.4703V23.9835H69.7124V14.1485H71.4703ZM66.5272 23.9835H64.6263C64.2539 23.9835 63.9499 23.6837 63.9499 23.3164V14.8155C63.9499 14.4482 64.2539 14.1485 64.6263 14.1485H66.5272V23.9835Z" fill="#F7323F"/>
<path d="M22.3465 10.6929C21.3603 10.6929 20.5648 11.4951 20.5946 12.4736C20.6244 13.4198 21.4586 14.1485 22.421 14.1485H28.5559C28.9284 14.1485 29.2293 14.4453 29.2293 14.8126V27.4391H32.7332V12.4207C32.7332 11.4657 31.9496 10.6929 30.9813 10.6929H22.3465Z" fill="#F7323F"/>
<path d="M56.8407 10.6929C55.8724 10.6929 55.0887 11.4657 55.0887 12.4207V17.3367H52.4101V16.9988C52.4101 13.5226 49.5527 10.7046 46.0279 10.7046C42.5031 10.7046 39.6458 13.5226 39.6458 16.9988V21.1596C39.6458 24.6358 42.5031 27.4538 46.0279 27.4538C49.5527 27.4538 52.4101 24.6358 52.4101 21.1596V20.7953H55.0887V27.4391H58.5927V20.7923V17.3367V12.4207C58.5927 11.4657 57.8091 10.6929 56.8407 10.6929ZM49.1446 21.1273C49.1446 22.8345 47.7412 24.2156 46.013 24.2156C44.2849 24.2156 42.8815 22.8316 42.8815 21.1273V17.0282C42.8815 15.3209 44.2849 13.9399 46.013 13.9399C47.7412 13.9399 49.1446 15.3239 49.1446 17.0282V21.1273Z" fill="#F7323F"/>
<path d="M99.5348 10.6663C98.5754 10.6957 97.8365 11.5185 97.8365 12.4676V15.0858H95.3069V13.8986V12.3941C95.3069 11.4391 94.5232 10.6663 93.5549 10.6663H84.5835C83.7611 10.6663 83.0967 11.3216 83.0967 12.1326V12.4323C83.0967 13.2433 83.7611 13.8986 84.5835 13.8986H91.1266C91.499 13.8986 91.8029 14.1983 91.8029 14.5656V15.0916H84.5835C83.7611 15.0916 83.0967 15.7469 83.0967 16.5579C83.0967 17.3689 83.7611 18.0242 84.5835 18.0242H91.8029V19.5434H95.3069V18.0242H97.8365V19.5434H101.34V12.3941C101.34 11.4215 100.527 10.6369 99.5348 10.6663Z" fill="#F7323F"/>
<path d="M83.3945 21.8474V25.7232C83.3945 26.6782 84.1781 27.4511 85.1465 27.4511H101.34V21.8474C101.34 20.8924 100.557 20.1196 99.5884 20.1196H85.1495C84.1781 20.1196 83.3945 20.8924 83.3945 21.8474ZM97.8364 24.5185H87.5748C87.2024 24.5185 86.8985 24.2188 86.8985 23.8515V23.7192C86.8985 23.3519 87.2024 23.0522 87.5748 23.0522H97.16C97.5325 23.0522 97.8364 23.3519 97.8364 23.7192V24.5185Z" fill="#F7323F"/>
<path d="M127.161 23.3168V12.4915C127.161 11.5453 126.422 10.7196 125.463 10.6903C124.471 10.6609 123.657 11.4454 123.657 12.4181V25.7116C123.657 26.6666 124.441 27.4394 125.409 27.4394H125.844H127.161H135.212V23.9838H127.835C127.462 23.9838 127.161 23.6841 127.161 23.3168Z" fill="#F7323F"/>
<path d="M119.754 10.6929C118.786 10.6929 118.002 11.4657 118.002 12.4207V17.3367H114.364V14.1485H115.01C115.979 14.1485 116.762 13.3757 116.762 12.4207C116.762 11.4657 115.979 10.6929 115.01 10.6929H113.345H112.18H107.681H106.516H104.788C103.819 10.6929 103.036 11.4657 103.036 12.4207C103.036 13.3757 103.819 14.1485 104.788 14.1485H105.497V23.9835H104.788C103.819 23.9835 103.036 24.7563 103.036 25.7113C103.036 26.6663 103.819 27.4391 104.788 27.4391H105.497H108.7H111.161H114.364H116.762V23.9835H114.364V20.7923H118.002V27.4361H121.506V12.4207C121.506 11.4657 120.719 10.6929 119.754 10.6929ZM111.158 23.9835H108.697V14.1485H111.158V23.9835Z" fill="#F7323F"/>
<path d="M17.2218 10.6929C16.2534 10.6929 15.4698 11.4657 15.4698 12.4207V14.5364H12.2608C11.2925 12.2767 9.02505 10.6929 6.38219 10.6929C2.85739 10.6929 0 13.5079 0 16.9841V21.1449C0 24.6211 2.85739 27.4391 6.38219 27.4391C9.02505 27.4391 11.2925 25.8553 12.2608 23.5956H15.4698V27.4391H18.9738V12.4207C18.9738 11.4657 18.1901 10.6929 17.2218 10.6929ZM9.49582 21.1155C9.49582 22.8228 8.09245 24.2039 6.36431 24.2039C4.63618 24.2039 3.23281 22.8198 3.23281 21.1155V17.0164C3.23281 15.3092 4.63618 13.9281 6.36431 13.9281C8.09245 13.9281 9.49582 15.3121 9.49582 17.0164V21.1155ZM12.7614 20.14V17.992H15.4698V20.14H12.7614Z" fill="#F7323F"/>
<path d="M83.0967 8.64188L100.634 3.53192C101.138 3.385 101.665 3.3468 102.184 3.41732L140 8.64188V5.10693L102.163 0.0322293C101.659 -0.035355 101.144 -9.35857e-05 100.655 0.140952L83.0967 5.10987V8.64188Z" fill="#F7323F"/>
</g>
<defs>
<clipPath id="clip0_57_716">
<rect width="140" height="27.451" fill="white"/>
</clipPath>
</defs>
</svg>
