<svg width="1350" height="170" viewBox="0 0 1350 170" fill="none" xmlns="http://www.w3.org/2000/svg">
<g clip-path="url(#clip0_255_604)">
<path d="M110.944 164V1.59999H171.032C184.024 1.59999 194.773 3.76532 203.28 8.09599C211.786 12.4267 218.128 18.3813 222.304 25.96C226.48 33.5387 228.568 42.0453 228.568 51.48C228.568 60.4507 226.557 68.7253 222.536 76.304C218.514 83.728 212.25 89.76 203.744 94.4C195.237 98.8853 184.333 101.128 171.032 101.128H140.64V164H110.944ZM140.64 77H169.176C179.538 77 186.962 74.7573 191.448 70.272C196.088 65.632 198.408 59.368 198.408 51.48C198.408 43.4373 196.088 37.1733 191.448 32.688C186.962 28.048 179.538 25.728 169.176 25.728H140.64V77ZM270.426 164V1.59999H330.05C343.042 1.59999 353.714 3.84266 362.066 8.328C370.572 12.6587 376.914 18.6133 381.09 26.192C385.266 33.616 387.354 41.8907 387.354 51.016C387.354 60.9147 384.724 69.9627 379.466 78.16C374.362 86.3573 366.319 92.312 355.338 96.024L388.978 164H354.874L324.714 99.968H300.122V164H270.426ZM300.122 78.16H328.194C338.092 78.16 345.362 75.7627 350.002 70.968C354.642 66.1733 356.962 59.832 356.962 51.944C356.962 44.2107 354.642 38.024 350.002 33.384C345.516 28.744 338.17 26.424 327.962 26.424H300.122V78.16ZM433.532 164V1.59999H539.556V25.496H463.228V70.04H532.596V93.24H463.228V140.104H539.556V164H433.532ZM586.217 164V1.59999H621.481L673.217 104.608L724.257 1.59999H759.521V164H729.825V51.944L684.585 140.8H661.153L615.913 51.944V164H586.217ZM809.59 164V1.59999H839.286V164H809.59ZM951.962 166.784C940.052 166.784 929.303 164.464 919.714 159.824C910.124 155.029 902.468 147.837 896.746 138.248C891.178 128.659 888.394 116.517 888.394 101.824V1.59999H918.09V102.056C918.09 114.739 921.106 124.173 927.138 130.36C933.324 136.547 941.831 139.64 952.658 139.64C963.33 139.64 971.759 136.547 977.946 130.36C984.132 124.173 987.226 114.739 987.226 102.056V1.59999H1016.92V101.824C1016.92 116.517 1013.98 128.659 1008.11 138.248C1002.23 147.837 994.34 155.029 984.442 159.824C974.698 164.464 963.871 166.784 951.962 166.784ZM1065.8 164V1.59999H1101.06L1152.8 104.608L1203.84 1.59999H1239.1V164H1209.4V51.944L1164.16 140.8H1140.73L1095.49 51.944V164H1065.8Z" fill="white"/>
</g>
<defs>
<clipPath id="clip0_255_604">
<rect width="1350" height="170" fill="white"/>
</clipPath>
</defs>
</svg>
