<svg width="1350" height="170" viewBox="0 0 1350 170" fill="none" xmlns="http://www.w3.org/2000/svg">
<g clip-path="url(#clip0_255_606)">
<path d="M378.874 166V3.59999H438.498C451.49 3.59999 462.162 5.84266 470.514 10.328C479.02 14.6587 485.362 20.6133 489.538 28.192C493.714 35.616 495.802 43.8907 495.802 53.016C495.802 62.9147 493.172 71.9627 487.914 80.16C482.81 88.3573 474.767 94.312 463.786 98.024L497.426 166H463.322L433.162 101.968H408.57V166H378.874ZM408.57 80.16H436.642C446.54 80.16 453.81 77.7627 458.45 72.968C463.09 68.1733 465.41 61.832 465.41 53.944C465.41 46.2107 463.09 40.024 458.45 35.384C453.964 30.744 446.618 28.424 436.41 28.424H408.57V80.16ZM541.98 166V3.59999H648.004V27.496H571.676V72.04H641.044V95.24H571.676V142.104H648.004V166H541.98ZM684.225 166L743.617 3.59999H777.025L836.417 166H804.865L791.873 128.416H728.537L715.313 166H684.225ZM736.657 105.216H783.753L760.089 37.704L736.657 105.216ZM875.897 166V3.59999H905.593V142.8H977.513V166H875.897Z" fill="white"/>
</g>
<defs>
<clipPath id="clip0_255_606">
<rect width="1350" height="170" fill="white"/>
</clipPath>
</defs>
</svg>
