<svg width="1350" height="170" viewBox="0 0 1350 170" fill="none" xmlns="http://www.w3.org/2000/svg">
<g clip-path="url(#clip0_255_607)">
<path d="M209.149 166V3.59999H268.773C281.765 3.59999 292.437 5.84266 300.789 10.328C309.296 14.6587 315.637 20.6133 319.813 28.192C323.989 35.616 326.077 43.8907 326.077 53.016C326.077 62.9147 323.448 71.9627 318.189 80.16C313.085 88.3573 305.043 94.312 294.061 98.024L327.701 166H293.597L263.437 101.968H238.845V166H209.149ZM238.845 80.16H266.917C276.816 80.16 284.085 77.7627 288.725 72.968C293.365 68.1733 295.685 61.832 295.685 53.944C295.685 46.2107 293.365 40.024 288.725 35.384C284.24 30.744 276.893 28.424 266.685 28.424H238.845V80.16ZM372.256 166V3.59999H478.28V27.496H401.952V72.04H471.32V95.24H401.952V142.104H478.28V166H372.256ZM572.037 166L512.645 3.59999H544.429L590.365 135.608L636.533 3.59999H667.853L608.461 166H572.037ZM705.72 166V3.59999H735.416V166H705.72ZM785.452 166V3.59999H891.476V27.496H815.148V72.04H884.516V95.24H815.148V142.104H891.476V166H785.452ZM971.081 166L928.161 3.59999H959.945L989.177 132.824L1023.51 3.59999H1056.22L1089.63 132.824L1118.86 3.59999H1150.88L1106.8 166H1071.54L1039.29 45.592L1006.11 166H971.081Z" fill="white"/>
</g>
<defs>
<clipPath id="clip0_255_607">
<rect width="1350" height="170" fill="white"/>
</clipPath>
</defs>
</svg>
