<svg width="1350" height="173" viewBox="0 0 1350 173" fill="none" xmlns="http://www.w3.org/2000/svg">
<g clip-path="url(#clip0_255_602)">
<path d="M219.54 167.784C207.631 167.784 197.113 165.773 187.988 161.752C178.863 157.576 171.671 151.699 166.412 144.12C161.153 136.387 158.447 127.029 158.292 116.048H189.612C189.921 123.627 192.628 130.045 197.732 135.304C202.991 140.408 210.183 142.96 219.308 142.96C227.196 142.96 233.46 141.104 238.1 137.392C242.74 133.525 245.06 128.421 245.06 122.08C245.06 115.429 242.972 110.248 238.796 106.536C234.775 102.824 229.361 99.808 222.556 97.488C215.751 95.168 208.481 92.6933 200.748 90.064C188.22 85.7333 178.631 80.1653 171.98 73.36C165.484 66.5547 162.236 57.5067 162.236 46.216C162.081 36.6267 164.324 28.4293 168.964 21.624C173.759 14.664 180.255 9.32799 188.452 5.61599C196.649 1.74933 206.084 -0.184003 216.756 -0.184003C227.583 -0.184003 237.095 1.74933 245.292 5.61599C253.644 9.48265 260.14 14.896 264.78 21.856C269.575 28.816 272.127 37.0907 272.436 46.68H240.652C240.497 40.9573 238.255 35.9307 233.924 31.6C229.748 27.1147 223.871 24.872 216.292 24.872C209.796 24.7173 204.305 26.3413 199.82 29.744C195.489 32.992 193.324 37.7867 193.324 44.128C193.324 49.5413 195.025 53.872 198.428 57.12C201.831 60.2133 206.471 62.8427 212.348 65.008C218.225 67.1733 224.953 69.4933 232.532 71.968C240.575 74.752 247.921 78 254.572 81.712C261.223 85.424 266.559 90.3733 270.58 96.56C274.601 102.592 276.612 110.403 276.612 119.992C276.612 128.499 274.447 136.387 270.116 143.656C265.785 150.925 259.367 156.803 250.86 161.288C242.353 165.619 231.913 167.784 219.54 167.784ZM321.082 165V2.59999H427.106V26.496H350.778V71.04H420.146V94.24H350.778V141.104H427.106V165H321.082ZM473.767 165V2.59999H533.391C546.383 2.59999 557.055 4.84266 565.407 9.328C573.913 13.6587 580.255 19.6133 584.431 27.192C588.607 34.616 590.695 42.8907 590.695 52.016C590.695 61.9147 588.065 70.9627 582.807 79.16C577.703 87.3573 569.66 93.312 558.679 97.024L592.319 165H558.215L528.055 100.968H503.463V165H473.767ZM503.463 79.16H531.535C541.433 79.16 548.703 76.7627 553.343 71.968C557.983 67.1733 560.303 60.832 560.303 52.944C560.303 45.2107 557.983 39.024 553.343 34.384C548.857 29.744 541.511 27.424 531.303 27.424H503.463V79.16ZM678.306 165L618.914 2.59999H650.698L696.634 134.608L742.802 2.59999H774.122L714.73 165H678.306ZM811.988 165V2.59999H841.684V165H811.988ZM965.264 167.784C948.87 167.784 934.795 164.304 923.04 157.344C911.286 150.229 902.238 140.408 895.896 127.88C889.555 115.197 886.384 100.581 886.384 84.032C886.384 67.4827 889.555 52.8667 895.896 40.184C902.238 27.5013 911.286 17.6027 923.04 10.488C934.795 3.37333 948.87 -0.184003 965.264 -0.184003C984.752 -0.184003 1000.68 4.68799 1013.06 14.432C1025.58 24.0213 1033.39 37.5547 1036.49 55.032H1003.78C1001.77 46.216 997.435 39.3333 990.784 34.384C984.288 29.28 975.627 26.728 964.8 26.728C949.798 26.728 938.043 31.832 929.536 42.04C921.03 52.248 916.776 66.2453 916.776 84.032C916.776 101.819 921.03 115.816 929.536 126.024C938.043 136.077 949.798 141.104 964.8 141.104C975.627 141.104 984.288 138.784 990.784 134.144C997.435 129.349 1001.77 122.776 1003.78 114.424H1036.49C1033.39 131.128 1025.58 144.197 1013.06 153.632C1000.68 163.067 984.752 167.784 965.264 167.784ZM1081.33 165V2.59999H1187.36V26.496H1111.03V71.04H1180.4V94.24H1111.03V141.104H1187.36V165H1081.33Z" fill="#333333"/>
</g>
<defs>
<clipPath id="clip0_255_602">
<rect width="1350" height="173" fill="white"/>
</clipPath>
</defs>
</svg>
