<svg width="1350" height="170" viewBox="0 0 1350 170" fill="none" xmlns="http://www.w3.org/2000/svg">
<g clip-path="url(#clip0_255_601)">
<path d="M333.976 166V27.496H286.648V3.59999H411.232V27.496H363.672V166H333.976ZM451.79 166V3.59999H511.414C524.406 3.59999 535.078 5.84266 543.43 10.328C551.937 14.6587 558.278 20.6133 562.454 28.192C566.63 35.616 568.718 43.8907 568.718 53.016C568.718 62.9147 566.089 71.9627 560.83 80.16C555.726 88.3573 547.684 94.312 536.702 98.024L570.342 166H536.238L506.078 101.968H481.486V166H451.79ZM481.486 80.16H509.558C519.457 80.16 526.726 77.7627 531.366 72.968C536.006 68.1733 538.326 61.832 538.326 53.944C538.326 46.2107 536.006 40.024 531.366 35.384C526.881 30.744 519.534 28.424 509.326 28.424H481.486V80.16ZM677.537 168.784C665.628 168.784 654.878 166.464 645.289 161.824C635.7 157.029 628.044 149.837 622.321 140.248C616.753 130.659 613.969 118.517 613.969 103.824V3.59999H643.665V104.056C643.665 116.739 646.681 126.173 652.713 132.36C658.9 138.547 667.406 141.64 678.233 141.64C688.905 141.64 697.334 138.547 703.521 132.36C709.708 126.173 712.801 116.739 712.801 104.056V3.59999H742.497V103.824C742.497 118.517 739.558 130.659 733.681 140.248C727.804 149.837 719.916 157.029 710.017 161.824C700.273 166.464 689.446 168.784 677.537 168.784ZM846.819 168.784C834.91 168.784 824.392 166.773 815.267 162.752C806.142 158.576 798.95 152.699 793.691 145.12C788.432 137.387 785.726 128.029 785.571 117.048H816.891C817.2 124.627 819.907 131.045 825.011 136.304C830.27 141.408 837.462 143.96 846.587 143.96C854.475 143.96 860.739 142.104 865.379 138.392C870.019 134.525 872.339 129.421 872.339 123.08C872.339 116.429 870.251 111.248 866.075 107.536C862.054 103.824 856.64 100.808 849.835 98.488C843.03 96.168 835.76 93.6933 828.027 91.064C815.499 86.7333 805.91 81.1653 799.259 74.36C792.763 67.5547 789.515 58.5067 789.515 47.216C789.36 37.6267 791.603 29.4293 796.243 22.624C801.038 15.664 807.534 10.328 815.731 6.61599C823.928 2.74933 833.363 0.815997 844.035 0.815997C854.862 0.815997 864.374 2.74933 872.571 6.61599C880.923 10.4827 887.419 15.896 892.059 22.856C896.854 29.816 899.406 38.0907 899.715 47.68H867.931C867.776 41.9573 865.534 36.9307 861.203 32.6C857.027 28.1147 851.15 25.872 843.571 25.872C837.075 25.7173 831.584 27.3413 827.099 30.744C822.768 33.992 820.603 38.7867 820.603 45.128C820.603 50.5413 822.304 54.872 825.707 58.12C829.11 61.2133 833.75 63.8427 839.627 66.008C845.504 68.1733 852.232 70.4933 859.811 72.968C867.854 75.752 875.2 79 881.851 82.712C888.502 86.424 893.838 91.3733 897.859 97.56C901.88 103.592 903.891 111.403 903.891 120.992C903.891 129.499 901.726 137.387 897.395 144.656C893.064 151.925 886.646 157.803 878.139 162.288C869.632 166.619 859.192 168.784 846.819 168.784ZM984.138 166V27.496H936.81V3.59999H1061.39V27.496H1013.83V166H984.138Z" fill="#F7323F"/>
</g>
<defs>
<clipPath id="clip0_255_601">
<rect width="1350" height="170" fill="white"/>
</clipPath>
</defs>
</svg>
