<svg width="25" height="25" viewBox="0 0 25 25" fill="none" xmlns="http://www.w3.org/2000/svg">
<g clip-path="url(#clip0_39_1512)">
<circle cx="12.4998" cy="12.5" r="12" stroke="#333333"/>
<g clip-path="url(#clip1_39_1512)">
<path d="M8.20548 8.44728C8.31774 8.43423 8.43143 8.45211 8.53426 8.499C8.6371 8.54588 8.72516 8.61997 8.78894 8.71327C9.70412 10.0519 10.8028 10.6087 12.0224 10.7352C12.082 10.2138 12.2227 9.69852 12.4875 9.24465C12.8756 8.57872 13.5068 8.08889 14.4084 7.90784C15.6546 7.65735 16.6033 8.10873 17.1533 8.66119L18.2644 8.45348C18.3807 8.43169 18.5007 8.44362 18.6104 8.48786C18.7202 8.53209 18.8149 8.60679 18.8836 8.70313C18.9522 8.79948 18.9918 8.91345 18.9978 9.03159C19.0038 9.14973 18.9759 9.26712 18.9173 9.3699L17.8508 11.2437C17.9482 13.9476 17.1967 15.835 15.5945 17.1353C14.745 17.8248 13.5285 18.216 12.1936 18.3369C10.8481 18.4584 9.32713 18.3115 7.81547 17.87C7.68632 17.8323 7.57292 17.7537 7.49239 17.6459C7.41186 17.5381 7.36858 17.4071 7.36907 17.2725C7.36956 17.138 7.41379 17.0073 7.4951 16.9001C7.57641 16.7929 7.69038 16.715 7.81981 16.6783C8.57998 16.4619 9.1591 16.2753 9.68179 15.9485C8.93837 15.5542 8.39087 15.0383 8.00335 14.4505C7.46515 13.6333 7.2655 12.7218 7.22582 11.9003C7.18613 11.0787 7.30456 10.3173 7.42981 9.76858C7.50111 9.45546 7.5842 9.14172 7.69891 8.84162C7.73937 8.73584 7.80803 8.64315 7.89745 8.57364C7.98686 8.50412 8.09299 8.46042 8.20548 8.44728Z" fill="#333333"/>
</g>
</g>
<defs>
<clipPath id="clip0_39_1512">
<rect width="25" height="25" fill="white"/>
</clipPath>
<clipPath id="clip1_39_1512">
<rect width="14.881" height="14.881" fill="white" transform="translate(5.35669 5.35742)"/>
</clipPath>
</defs>
</svg>
