<svg width="25" height="25" viewBox="0 0 25 25" fill="none" xmlns="http://www.w3.org/2000/svg">
<g clip-path="url(#clip0_39_1509)">
<circle cx="12.5" cy="12.5" r="12" stroke="#333333"/>
<path d="M19.1717 9.29052C19.0094 8.67953 18.5313 8.19832 17.9243 8.03502C16.824 7.73828 12.4119 7.73828 12.4119 7.73828C12.4119 7.73828 7.99976 7.73828 6.89942 8.03502C6.29238 8.19835 5.81428 8.67953 5.65201 9.29052C5.35718 10.398 5.35718 12.7086 5.35718 12.7086C5.35718 12.7086 5.35718 15.0193 5.65201 16.1267C5.81428 16.7377 6.29238 17.1989 6.89942 17.3622C7.99976 17.6589 12.4119 17.6589 12.4119 17.6589C12.4119 17.6589 16.824 17.6589 17.9243 17.3622C18.5313 17.1989 19.0094 16.7377 19.1717 16.1267C19.4665 15.0193 19.4665 12.7086 19.4665 12.7086C19.4665 12.7086 19.4665 10.398 19.1717 9.29052ZM10.9688 14.8065V10.6107L14.6565 12.7087L10.9688 14.8065Z" fill="#202020"/>
</g>
<defs>
<clipPath id="clip0_39_1509">
<rect width="25" height="25" fill="white"/>
</clipPath>
</defs>
</svg>
